<!DOCTYPE svg PUBLIC "-//W3C//DTD SVG 1.1//EN" "http://www.w3.org/Graphics/SVG/1.1/DTD/svg11.dtd">
<!-- Uploaded to: SVG Repo, www.svgrepo.com, Transformed by: SVG Repo Mixer Tools -->
<svg height="800px" width="800px" version="1.1" id="Capa_1" xmlns="http://www.w3.org/2000/svg" xmlns:xlink="http://www.w3.org/1999/xlink" viewBox="0 0 464 464" xml:space="preserve" fill="#000000">
<g id="SVGRepo_bgCarrier" stroke-width="0"/>
<g id="SVGRepo_tracerCarrier" stroke-linecap="round" stroke-linejoin="round"/>
<g id="SVGRepo_iconCarrier"> <g> <path style="fill:#d2a69d;" d="M200.55,53.46c0.29,1.678,0.759,3.277,1.3,4.855l0,0.002c2.034,5.938,5.722,11.044,10.573,14.828 c-0.013,0.045-0.022,0.088-0.035,0.133C217.806,77.487,224.608,80,232,80c17.673,0,32-14.327,32-32V24l-11.578-5.789 c-2.71-1.355-4.422-4.125-4.422-7.156V8c0-4.418-3.582-8-8-8h-16c-4.418,0-8,3.582-8,8v3.056c0,3.03-1.712,5.8-4.422,7.156L200,24 v24C200,49.874,200.208,51.689,200.55,53.46z"/> <path style="fill:#7D5050;" d="M224,392c-13.234,0-24,10.766-24,24v24c0,4.414-3.59,8-8,8h-8c-4.418,0-8,3.578-8,8s3.582,8,8,8h8 c13.234,0,24-10.766,24-24v-24c0-4.414,3.59-8,8-8V392z"/> <path style="fill:#7D5050;" d="M280,448h-8c-4.41,0-8-3.586-8-8v-24c0-13.234-10.766-24-24-24v16c4.41,0,8,3.586,8,8v24 c0,13.234,10.766,24,24,24h8c4.418,0,8-3.578,8-8S284.418,448,280,448z"/> <path style="fill:#6B3C41;" d="M240,392v-24h-16v24v16v8c0,4.418,3.582,8,8,8s8-3.582,8-8v-8V392z"/> <path style="fill:#fafafa;" d="M344,368c0,0-17-133.5-56-200c-10.888-18.566-24-29.75-24-40c0-10,3.833-18.5,8.971-24 c7.682-8.225,6.822-18.891,6.992-24L304,72l-10.53-31.589C290.204,30.61,281.032,24,270.702,24H264v24c0,17.673-14.327,32-32,32 c-7.392,0-14.194-2.513-19.611-6.723c-3.64,12.561-0.007,21.237,6.005,30.723c3.409,5.379,5.606,14,5.606,24 c0,10.25-8.195,21.434-15,40c-24.375,66.5-41,200-41,200h56h16H344z"/> <path style="fill:#f4f2f0;" d="M224,128c0-10-2.197-18.621-5.606-24c-6.012-9.486-9.645-18.162-6.005-30.723 c0.013-0.045,0.022-0.088,0.035-0.133c-4.851-3.783-8.539-8.89-10.573-14.828l0-0.002c-0.541-1.578-1.01-3.177-1.3-4.855 C200.208,51.689,200,49.874,200,48V24h-6.702c-10.331,0-19.502,6.61-22.769,16.411L160,72l24.038,8 c0.169,5.109-0.69,15.775,6.992,24c5.137,5.5,8.971,14,8.971,24c0,10.25-13.112,21.434-24,40c-39,66.5-56,200-56,200h48 c0,0,16.625-133.5,41-200C215.805,149.434,224,138.25,224,128z"/> </g> </g>
</svg>